<svg id="Layer_1" data-name="Layer 1" xmlns="http://www.w3.org/2000/svg" viewBox="0 0 307.87 183.58"><defs><style>.cls-1{fill:#b2292e;}.cls-2{fill:#231f20;}</style></defs><path class="cls-1" d="M165,171.56h-39.2l-29-56.45H82v34.67H98.1v21.78H30.87V149.78H48.49v-85H30.87V43H111c25,0,38.63,16.48,38.63,36,0,14.78-7.19,25.19-22.15,32l20.83,38.83H165ZM95.45,94.48c15,0,19.31-8.34,19.31-15.16,0-5.3-3.21-14.57-15.71-14.57H82V94.48Z" transform="translate(-30.87 -15.47)"/><path class="cls-2" d="M221.69,64.75H206.53V43h63.64V64.75H255.4l21.4,64.38h.37l21.59-64.38h-14.2V43h54.18V64.75H323.58L286.26,172.5H260.32Z" transform="translate(-30.87 -15.47)"/><rect class="cls-2" x="151.14" width="7.46" height="183.58"/></svg>