<svg id="Layer_1" data-name="Layer 1" xmlns="http://www.w3.org/2000/svg" viewBox="0 0 551.01 72.79"><defs><style>.cls-1{fill:#b2292e;}.cls-2{fill:#fff;}</style></defs><path class="cls-1" d="M69.77,71.91H58.29l-8.5-16.54H45.46V65.53h4.72v6.38H30.48V65.53h5.16V40.61H30.48V34.22H54c7.32,0,11.32,4.83,11.32,10.55,0,4.33-2.11,7.38-6.49,9.38l6.1,11.38h4.88ZM49.41,49.32c4.38,0,5.65-2.44,5.65-4.44a4.21,4.21,0,0,0-4.6-4.27h-5v8.71Z" transform="translate(-30.48 -13.07)"/><path class="cls-1" d="M82.65,65.53h4.44V40.61H82.65V34.22h33.13V46.15h-7.16V40.61H96.91v8.65h9.44v6.39H96.91v9.88h11.71V59.92h7.16v12H82.65Z" transform="translate(-30.48 -13.07)"/><path class="cls-1" d="M130.71,65.53h5.72V40.61h-5.72V34.22h19.7c6.83,0,11.55,1.28,15.38,5.11a19,19,0,0,1,5.38,13.82c0,9.77-6,18.76-18,18.76H130.71Zm19.26,0c7.49,0,11-4.83,11-12.33,0-8.1-4-12.59-11.32-12.59h-3.39V65.53Z" transform="translate(-30.48 -13.07)"/><path class="cls-2" d="M208.47,40.61H204V34.22h18.65v6.39h-4.32l6.27,18.86h.11l6.33-18.86h-4.17V34.22h15.88v6.39h-4.44L227.39,72.19h-7.6Z" transform="translate(-30.48 -13.07)"/><path class="cls-2" d="M255.75,65.53h4.44V40.61h-4.44V34.22h33.14V46.15h-7.16V40.61H270v8.65h9.44v6.39H270v9.88h11.72V59.92h7.16v12H255.75Z" transform="translate(-30.48 -13.07)"/><path class="cls-2" d="M303.15,65.53h5.05V40.61h-5.05V34.22h15.77l13.81,23.54h.11V40.61H328V34.22h16.92v6.39h-5.32v31.3h-8.44L315,44.21h-.11V65.53h4.71v6.38H303.15Z" transform="translate(-30.48 -13.07)"/><path class="cls-2" d="M393,49.38H386.4V40.61h-5.66V65.53h5.66v6.38H365.26V65.53h5.66V40.61h-5.66v8.77h-6.55V34.22H393Z" transform="translate(-30.48 -13.07)"/><path class="cls-2" d="M406.49,34.22H424v6.39h-3.28V59.75c0,3.72,1.12,6.22,4.89,6.22,3.17,0,5.22-1.61,5.22-5.88V40.61h-3.11V34.22h14.54v6.39h-4.71V61.69c0,8.77-7.67,10.66-13,10.66-7.38,0-13.65-2.82-13.65-12V40.61h-4.44Z" transform="translate(-30.48 -13.07)"/><path class="cls-2" d="M495,71.91H483.47L475,55.37h-4.33V65.53h4.71v6.38H455.67V65.53h5.16V40.61h-5.16V34.22h23.47c7.32,0,11.32,4.83,11.32,10.55,0,4.33-2.11,7.38-6.49,9.38l6.11,11.38H495ZM474.59,49.32c4.38,0,5.66-2.44,5.66-4.44a4.21,4.21,0,0,0-4.61-4.27h-5v8.71Z" transform="translate(-30.48 -13.07)"/><path class="cls-2" d="M507.84,65.53h4.44V40.61h-4.44V34.22H541V46.15h-7.16V40.61H522.1v8.65h9.43v6.39H522.1v9.88h11.71V59.92H541v12H507.84Z" transform="translate(-30.48 -13.07)"/><path class="cls-2" d="M556.51,59.08h6.38c-.11,4.06,2.5,6.84,5.77,6.84a4.1,4.1,0,0,0,4.16-4.06c0-6.88-16.7-5.94-16.7-17.76,0-7.32,5.49-10.27,10.16-10.27a7.84,7.84,0,0,1,6.88,3.51h.11V34.22h6.32V45.66h-6.32c-.5-3.44-2.55-5.55-5.44-5.55-2.16,0-3.72,1.27-3.72,3,0,6.1,17.38,4.71,17.38,18,0,9-6.94,11.22-10.94,11.22A8.6,8.6,0,0,1,563,68.75h-.11v3.16h-6.38Z" transform="translate(-30.48 -13.07)"/><rect class="cls-2" x="155.58" width="2.18" height="72.79"/></svg>